<svg width="41" height="41" viewBox="0 0 41 41" fill="none" xmlns="http://www.w3.org/2000/svg">
<path d="M20.5002 25.4587C20.2779 25.4587 20.0629 25.417 19.8552 25.3337C19.6463 25.2503 19.4724 25.1392 19.3335 25.0003L11.6668 17.3337C11.3613 17.0281 11.2085 16.6392 11.2085 16.167C11.2085 15.6948 11.3613 15.3059 11.6668 15.0003C11.9724 14.6948 12.3613 14.542 12.8335 14.542C13.3057 14.542 13.6946 14.6948 14.0002 15.0003L20.5002 21.5003L27.0002 15.0003C27.3057 14.6948 27.6946 14.542 28.1668 14.542C28.6391 14.542 29.0279 14.6948 29.3335 15.0003C29.639 15.3059 29.7918 15.6948 29.7918 16.167C29.7918 16.6392 29.639 17.0281 29.3335 17.3337L21.6668 25.0003C21.5002 25.167 21.3196 25.2848 21.1252 25.3537C20.9307 25.4237 20.7224 25.4587 20.5002 25.4587Z" fill="#212529"/>
</svg>
