<svg width="53" height="50" viewBox="0 0 53 50" fill="none" xmlns="http://www.w3.org/2000/svg">
<path d="M35.7166 2.05456C38.6462 2.1257 41.5735 2.28959 50.9159 2.66715C50.3945 9.13317 47.4867 19.8654 43.2444 29.4241C40.909 34.6861 38.2308 39.4485 35.4367 42.8602C32.5648 46.367 29.9409 48 27.7648 48C25.5541 48 22.7684 46.3288 19.6481 42.8021C16.6155 39.3745 13.6257 34.5989 10.9791 29.3368C8.33961 24.0889 6.08258 18.4395 4.48916 13.3188C3.19798 9.16944 2.37458 5.4684 2.10093 2.65064C9.25501 2.30566 12.1866 2.1436 15.1204 2.06746C17.7347 1.99961 20.3508 2 25.958 2C31.187 2 33.4524 1.99958 35.7166 2.05456Z" fill="white" stroke="#031633" stroke-width="4"/>
<path d="M44 9.46442C44 17.5012 35.8346 40 27.8114 40C19.7882 40 10 17.5012 10 9.46442C20.0841 9 18.6291 9 26.6523 9C34.6755 9 31.9091 9 44 9.46442Z" fill="#042554"/>
<rect x="26" y="12" width="4" height="21" fill="white"/>
<rect x="21" y="19" width="3" height="15" transform="rotate(-90 21 19)" fill="white"/>
</svg>
