<svg width="32" height="32" viewBox="0 0 32 32" fill="none" xmlns="http://www.w3.org/2000/svg">
<path d="M29.9467 7.99967C28.92 8.46634 27.8133 8.77301 26.6667 8.91967C27.84 8.21301 28.7467 7.09301 29.1733 5.74634C28.0667 6.41301 26.84 6.87967 25.5467 7.14634C24.4933 5.99967 23.0133 5.33301 21.3333 5.33301C18.2 5.33301 15.64 7.89301 15.64 11.053C15.64 11.5063 15.6933 11.9463 15.7867 12.3597C11.04 12.1197 6.81333 9.83967 4 6.38634C3.50666 7.22634 3.22666 8.21301 3.22666 9.25301C3.22666 11.2397 4.22666 12.9997 5.77333 13.9997C4.82666 13.9997 3.94666 13.733 3.17333 13.333V13.373C3.17333 16.1463 5.14666 18.4663 7.76 18.9863C6.92097 19.216 6.04012 19.2479 5.18666 19.0797C5.5488 20.2163 6.25805 21.2109 7.21468 21.9236C8.17132 22.6363 9.32726 23.0313 10.52 23.053C8.49817 24.6536 5.99199 25.5188 3.41333 25.5063C2.96 25.5063 2.50666 25.4797 2.05333 25.4263C4.58666 27.053 7.6 27.9997 10.8267 27.9997C21.3333 27.9997 27.1067 19.2797 27.1067 11.7197C27.1067 11.4663 27.1067 11.2263 27.0933 10.973C28.2133 10.173 29.1733 9.15967 29.9467 7.99967Z" fill="white"/>
</svg>
