<svg width="41" height="41" viewBox="0 0 41 41" fill="none" xmlns="http://www.w3.org/2000/svg">
<path d="M20.4998 7.16699C22.2679 7.16699 23.9636 7.86937 25.2139 9.11961C26.4641 10.3699 27.1665 12.0655 27.1665 13.8337C27.1665 15.6018 26.4641 17.2975 25.2139 18.5477C23.9636 19.7979 22.2679 20.5003 20.4998 20.5003C18.7317 20.5003 17.036 19.7979 15.7858 18.5477C14.5355 17.2975 13.8332 15.6018 13.8332 13.8337C13.8332 12.0655 14.5355 10.3699 15.7858 9.11961C17.036 7.86937 18.7317 7.16699 20.4998 7.16699ZM20.4998 23.8337C27.8665 23.8337 33.8332 26.817 33.8332 30.5003V33.8337H7.1665V30.5003C7.1665 26.817 13.1332 23.8337 20.4998 23.8337Z" fill="#0D6EFD"/>
</svg>
